<?xml version="1.0" encoding="utf-8"?>
<!-- Generator: Adobe Illustrator 26.0.2, SVG Export Plug-In . SVG Version: 6.00 Build 0)  -->
<svg version="1.1" id="Layer_2" xmlns="http://www.w3.org/2000/svg" xmlns:xlink="http://www.w3.org/1999/xlink" x="0px" y="0px"
	 viewBox="0 0 610 103" style="enable-background:new 0 0 610 103;" xml:space="preserve">
<style type="text/css">
	.st0{fill:#227C9D;}
	.st1{fill:#F4EFEF;}
	.st2{opacity:0.67;}
	.st3{fill:#20303E;}
</style>
<path class="st0" d="M192.59,103H4.68C2.1,103,0,100.9,0,98.32V4.68C0,2.1,2.1,0,4.68,0h187.91c2.59,0,4.68,2.1,4.68,4.68v93.64
	C197.27,100.9,195.18,103,192.59,103z"/>
<g>
	<path class="st1" d="M31.49,77.33V23.92h11.75v53.41H31.49z"/>
	<path class="st1" d="M98.41,77.33V42.46L83.38,65.27h-0.31L68.19,42.69v34.64h-11.6V23.92h12.67L83.3,46.5l14.04-22.59h12.67v53.41
		H98.41z"/>
	<path class="st1" d="M165.48,72.67c-1.48,1.17-3.09,2.17-4.85,3.01c-1.75,0.84-3.68,1.48-5.76,1.91c-2.09,0.43-4.43,0.65-7.02,0.65
		c-3.92,0-7.55-0.71-10.91-2.14s-6.26-3.37-8.7-5.84c-2.44-2.47-4.35-5.38-5.72-8.74s-2.06-6.94-2.06-10.76v-0.15
		c0-3.81,0.69-7.39,2.06-10.72c1.37-3.33,3.28-6.26,5.72-8.77s5.37-4.5,8.77-5.95c3.41-1.45,7.17-2.17,11.29-2.17
		c2.49,0,4.77,0.2,6.83,0.61c2.06,0.41,3.93,0.97,5.61,1.68c1.68,0.71,3.23,1.58,4.65,2.59c1.42,1.02,2.75,2.14,3.97,3.36
		l-7.48,8.62c-2.09-1.88-4.21-3.36-6.37-4.43c-2.16-1.07-4.59-1.6-7.29-1.6c-2.24,0-4.31,0.43-6.22,1.3
		c-1.91,0.87-3.55,2.06-4.92,3.59c-1.37,1.53-2.44,3.29-3.2,5.3c-0.76,2.01-1.14,4.16-1.14,6.45v0.15c0,2.29,0.38,4.45,1.14,6.49
		c0.76,2.04,1.82,3.82,3.17,5.34c1.35,1.53,2.98,2.73,4.88,3.62c1.91,0.89,4.01,1.33,6.29,1.33c3.05,0,5.63-0.56,7.75-1.68
		c2.11-1.12,4.21-2.64,6.29-4.58l7.48,7.55C168.38,70.18,166.95,71.5,165.48,72.67z"/>
</g>
<g class="st2">
	<path class="st3" d="M252.18,57.64c-0.62,1.56-1.44,2.88-2.46,3.96c-1.02,1.08-2.19,1.89-3.52,2.43c-1.33,0.54-2.73,0.82-4.18,0.82
		c-1.85,0-3.37-0.36-4.57-1.08c-1.2-0.72-2.21-1.56-3.02-2.53v10.43h-6.91V40.02h6.91v3.47c0.85-1.14,1.87-2.08,3.07-2.82
		c1.2-0.74,2.71-1.11,4.52-1.11c1.42,0,2.8,0.27,4.14,0.82c1.33,0.55,2.52,1.36,3.55,2.43c1.03,1.08,1.86,2.39,2.48,3.96
		c0.62,1.56,0.93,3.36,0.93,5.39v0.09C253.12,54.28,252.81,56.08,252.18,57.64z M246.21,52.16c0-1.01-0.16-1.93-0.48-2.77
		c-0.32-0.84-0.75-1.56-1.3-2.15c-0.55-0.59-1.17-1.05-1.89-1.37c-0.71-0.32-1.48-0.48-2.3-0.48s-1.58,0.16-2.3,0.48
		c-0.71,0.32-1.33,0.78-1.86,1.37c-0.53,0.6-0.96,1.31-1.27,2.15c-0.32,0.84-0.48,1.76-0.48,2.77v0.09c0,1.01,0.16,1.93,0.48,2.77
		s0.74,1.56,1.27,2.15c0.53,0.59,1.15,1.05,1.86,1.37c0.71,0.32,1.48,0.48,2.3,0.48s1.58-0.16,2.3-0.48
		c0.71-0.32,1.34-0.78,1.89-1.37c0.55-0.6,0.98-1.3,1.3-2.13s0.48-1.75,0.48-2.79V52.16z"/>
	<path class="st3" d="M282.4,57.18c-0.67,1.53-1.59,2.87-2.77,4.02s-2.58,2.06-4.18,2.73c-1.61,0.67-3.36,1-5.27,1
		c-1.88,0-3.62-0.33-5.23-0.98c-1.61-0.65-2.99-1.55-4.16-2.68c-1.17-1.14-2.08-2.47-2.75-4c-0.67-1.53-1-3.17-1-4.93v-0.09
		c0-1.76,0.33-3.4,1-4.93c0.67-1.53,1.59-2.87,2.77-4.02c1.18-1.15,2.58-2.06,4.18-2.73c1.61-0.67,3.36-1,5.27-1
		c1.88,0,3.62,0.33,5.23,0.98c1.61,0.65,2.99,1.55,4.16,2.68c1.17,1.14,2.08,2.47,2.75,4c0.67,1.53,1,3.18,1,4.93v0.09
		C283.4,54.01,283.07,55.65,282.4,57.18z M276.58,52.25c0-0.91-0.15-1.77-0.45-2.57c-0.3-0.8-0.74-1.52-1.32-2.14
		c-0.58-0.62-1.26-1.11-2.05-1.48c-0.79-0.36-1.65-0.55-2.59-0.55c-1,0-1.89,0.17-2.66,0.52c-0.77,0.35-1.43,0.83-1.98,1.43
		c-0.55,0.61-0.96,1.31-1.25,2.12c-0.29,0.8-0.43,1.66-0.43,2.57v0.09c0,0.91,0.15,1.77,0.45,2.57c0.3,0.8,0.74,1.52,1.32,2.14
		c0.58,0.62,1.25,1.11,2.02,1.48c0.77,0.36,1.64,0.54,2.61,0.54c1,0,1.89-0.17,2.66-0.52s1.43-0.83,1.98-1.43
		c0.55-0.61,0.96-1.31,1.25-2.11c0.29-0.8,0.43-1.66,0.43-2.57V52.25z"/>
	<path class="st3" d="M315.77,64.57h-6.23l-4.68-14.96l-4.77,14.96h-6.18l-7.5-24.55h7l3.91,14.78l4.59-14.87h5.96l4.64,14.91
		l4-14.82h6.87L315.77,64.57z"/>
	<path class="st3" d="M350.26,53.75c-0.02,0.24-0.04,0.53-0.07,0.86h-16.96c0.33,1.58,1.02,2.77,2.07,3.57
		c1.05,0.8,2.34,1.21,3.89,1.21c1.15,0,2.18-0.2,3.09-0.59c0.91-0.39,1.85-1.03,2.82-1.91l3.96,3.5c-1.15,1.42-2.55,2.54-4.18,3.34
		s-3.56,1.21-5.77,1.21c-1.82,0-3.51-0.3-5.07-0.91c-1.56-0.61-2.91-1.47-4.05-2.59s-2.02-2.45-2.66-3.98
		c-0.64-1.53-0.95-3.24-0.95-5.12v-0.09c0-1.73,0.29-3.36,0.89-4.91c0.59-1.55,1.42-2.89,2.48-4.05c1.06-1.15,2.33-2.06,3.8-2.73
		c1.47-0.67,3.1-1,4.89-1c2.03,0,3.79,0.36,5.27,1.09s2.72,1.71,3.71,2.93c0.98,1.23,1.71,2.64,2.18,4.23
		c0.47,1.59,0.7,3.25,0.7,4.98v0.09C350.28,53.22,350.28,53.51,350.26,53.75z M341.92,46.54c-0.88-0.96-2.05-1.43-3.5-1.43
		s-2.63,0.47-3.52,1.41c-0.89,0.94-1.48,2.2-1.75,3.77h10.41C343.34,48.75,342.8,47.5,341.92,46.54z"/>
	<path class="st3" d="M369.74,46.79c-2.3,0-4.12,0.7-5.43,2.09c-1.32,1.39-1.98,3.56-1.98,6.5v9h-6.91V40.02h6.91v4.91
		c0.7-1.67,1.65-3,2.87-4c1.21-1,2.85-1.46,4.91-1.36v7.23H369.74z"/>
	<path class="st3" d="M397.14,53.75c-0.02,0.24-0.04,0.53-0.07,0.86h-16.96c0.33,1.58,1.02,2.77,2.07,3.57
		c1.05,0.8,2.34,1.21,3.89,1.21c1.15,0,2.18-0.2,3.09-0.59c0.91-0.39,1.85-1.03,2.82-1.91l3.96,3.5c-1.15,1.42-2.55,2.54-4.18,3.34
		s-3.56,1.21-5.77,1.21c-1.82,0-3.51-0.3-5.07-0.91c-1.56-0.61-2.91-1.47-4.05-2.59s-2.02-2.45-2.66-3.98
		c-0.64-1.53-0.95-3.24-0.95-5.12v-0.09c0-1.73,0.29-3.36,0.89-4.91c0.59-1.55,1.42-2.89,2.48-4.05c1.06-1.15,2.33-2.06,3.8-2.73
		c1.47-0.67,3.1-1,4.89-1c2.03,0,3.79,0.36,5.27,1.09s2.72,1.71,3.71,2.93c0.98,1.23,1.71,2.64,2.18,4.23
		c0.47,1.59,0.7,3.25,0.7,4.98v0.09C397.16,53.22,397.15,53.51,397.14,53.75z M388.79,46.54c-0.88-0.96-2.05-1.43-3.5-1.43
		s-2.63,0.47-3.52,1.41c-0.89,0.94-1.48,2.2-1.75,3.77h10.41C390.22,48.75,389.67,47.5,388.79,46.54z"/>
	<path class="st3" d="M419.9,64.39v-3.47c-0.85,1.14-1.87,2.08-3.07,2.82c-1.2,0.74-2.71,1.11-4.52,1.11c-1.42,0-2.8-0.27-4.14-0.82
		c-1.33-0.55-2.52-1.36-3.55-2.43c-1.03-1.08-1.86-2.39-2.48-3.96s-0.93-3.36-0.93-5.39v-0.09c0-2.03,0.31-3.83,0.93-5.39
		s1.44-2.88,2.46-3.96c1.02-1.08,2.19-1.89,3.52-2.43c1.33-0.55,2.73-0.82,4.18-0.82c1.85,0,3.37,0.36,4.57,1.08
		c1.2,0.72,2.21,1.56,3.02,2.53V31.2h6.91v33.19H419.9z M419.99,52.16c0-1.01-0.16-1.93-0.48-2.77c-0.32-0.84-0.74-1.56-1.27-2.15
		c-0.53-0.59-1.15-1.05-1.86-1.37c-0.71-0.32-1.48-0.48-2.3-0.48s-1.58,0.16-2.3,0.48c-0.71,0.32-1.34,0.78-1.89,1.37
		c-0.55,0.6-0.98,1.3-1.3,2.13s-0.48,1.75-0.48,2.79v0.09c0,1.01,0.16,1.93,0.48,2.77s0.75,1.56,1.3,2.15
		c0.54,0.59,1.17,1.05,1.89,1.37c0.71,0.32,1.48,0.48,2.3,0.48s1.58-0.16,2.3-0.48c0.71-0.32,1.33-0.78,1.86-1.37
		c0.53-0.6,0.95-1.31,1.27-2.15s0.48-1.76,0.48-2.77V52.16z"/>
	<path class="st3" d="M471.3,57.64c-0.62,1.56-1.44,2.88-2.46,3.96s-2.19,1.89-3.52,2.43c-1.33,0.54-2.73,0.82-4.18,0.82
		c-1.85,0-3.37-0.36-4.57-1.08c-1.2-0.72-2.21-1.56-3.02-2.53v3.15h-6.91V31.2h6.91v12.29c0.85-1.14,1.87-2.08,3.07-2.82
		c1.2-0.74,2.71-1.11,4.52-1.11c1.42,0,2.8,0.27,4.14,0.82c1.33,0.55,2.52,1.36,3.55,2.43c1.03,1.08,1.86,2.39,2.48,3.96
		s0.93,3.36,0.93,5.39v0.09C472.23,54.28,471.92,56.08,471.3,57.64z M465.32,52.16c0-1.01-0.16-1.93-0.48-2.77
		c-0.32-0.84-0.75-1.56-1.3-2.15c-0.55-0.59-1.18-1.05-1.89-1.37s-1.48-0.48-2.3-0.48s-1.58,0.16-2.3,0.48
		c-0.71,0.32-1.33,0.78-1.86,1.37c-0.53,0.6-0.96,1.31-1.27,2.15c-0.32,0.84-0.48,1.76-0.48,2.77v0.09c0,1.01,0.16,1.93,0.48,2.77
		s0.74,1.56,1.27,2.15c0.53,0.59,1.15,1.05,1.86,1.37c0.71,0.32,1.48,0.48,2.3,0.48s1.58-0.16,2.3-0.48s1.34-0.78,1.89-1.37
		c0.54-0.6,0.98-1.3,1.3-2.13s0.48-1.75,0.48-2.79V52.16z"/>
	<path class="st3" d="M491.15,64.98c-0.46,1.24-0.94,2.3-1.46,3.16c-0.52,0.86-1.08,1.57-1.71,2.11c-0.62,0.55-1.33,0.94-2.11,1.18
		c-0.79,0.24-1.7,0.36-2.73,0.36c-1.27,0-2.4-0.15-3.37-0.45c-0.97-0.3-1.89-0.71-2.77-1.23l2.32-5c0.45,0.27,0.95,0.5,1.48,0.68
		c0.53,0.18,1.02,0.27,1.48,0.27c0.61,0,1.08-0.11,1.43-0.34c0.35-0.23,0.67-0.64,0.98-1.25l-9.55-24.46h7.32l5.55,16.6l5.32-16.6
		h7.18L491.15,64.98z"/>
	<path class="st3" d="M518.02,64.39v-5.32l17.51-20.37h-16.96v-6.14h25.96v5.32l-17.51,20.37h17.51v6.14H518.02z"/>
	<path class="st3" d="M575.35,48.52c-0.67,1.39-1.58,2.56-2.75,3.5s-2.53,1.64-4.09,2.11c-1.56,0.47-3.24,0.7-5.02,0.7h-5.32v9.55
		h-7V32.56h13c1.91,0,3.62,0.27,5.12,0.79c1.5,0.53,2.77,1.28,3.82,2.25c1.04,0.97,1.85,2.13,2.41,3.48
		c0.56,1.35,0.84,2.84,0.84,4.48v0.09C576.35,45.51,576.02,47.13,575.35,48.52z M569.26,43.7c0-1.58-0.51-2.77-1.52-3.59
		s-2.4-1.23-4.16-1.23h-5.41v9.73h5.55c1.76,0,3.12-0.46,4.09-1.39c0.97-0.92,1.46-2.07,1.46-3.43V43.7z"/>
	<path class="st3" d="M602.09,64.39l-9.87-13.55l-3.68,3.82v9.73h-7V32.56h7v13.91l12.91-13.91h8.46l-12.96,13.5l13.55,18.32H602.09
		z"/>
</g>
</svg>
